<svg xmlns="http://www.w3.org/2000/svg" viewBox="0 0 800 800"><defs><style>.cls-1{fill:#6d6e71;}.cls-2{fill:#a7a9ac;}.cls-3{fill:none;stroke:#fff200;stroke-linecap:round;stroke-miterlimit:10;stroke-width:2px;}.cls-4{font-size:53.95px;fill:#fff;font-family:Lato-Regular, Lato;}.cls-5{letter-spacing:-0.03em;}.cls-6{letter-spacing:-0.07em;}.cls-7{letter-spacing:-0.07em;}</style></defs><g id="Layer_1" data-name="Layer 1"><path class="cls-1" d="M283.76,511H119.46s18.21-11.83,18.21-58.71V251.63c0-46.88-18.21-59.16-18.21-59.16h164.3s-18.21,12.28-18.21,59.16v200.7C265.55,499.21,283.76,511,283.76,511Z"/><path class="cls-2" d="M685.14,294.46c-1.36,52.59-38.08,101.1-151.88,101.1-2.72,0-20.85.46-23.57.46v55.76c0,46.24,18.13,58.49,18.13,58.49H364.16s18.13-12.25,18.13-58.49V251.85c0-46.7-18.13-58.94-18.13-58.94h169.1C647.06,192.91,683.78,241.87,685.14,294.46Zm-111.53,0c0-58-20.4-95.21-63.92-95.21V389.67C553.21,389.67,573.61,352,573.61,294.46Z"/><line class="cls-3" x1="321.99" y1="272.14" x2="321.99" y2="407.26"/><text class="cls-4" transform="translate(118.76 561.88) scale(0.7)">INN<tspan class="cls-5" x="98.14" y="0">O</tspan><tspan class="cls-6" x="139.79" y="0">V</tspan><tspan class="cls-7" x="172.81" y="0">A</tspan><tspan x="205.94" y="0">TIVE</tspan></text><text class="cls-4" transform="translate(344.42 561.88)"> </text><text class="cls-4" transform="translate(354.83 561.88) scale(0.7)">PICTURES</text></g></svg>